<?xml version="1.0" encoding="UTF-8"?><svg id="Layer_2" xmlns="http://www.w3.org/2000/svg" xmlns:xlink="http://www.w3.org/1999/xlink" viewBox="0 0 2774.13 2772.4"><defs><style>.cls-1{fill:url(#linear-gradient);}.cls-2{fill:#91b3fa;}.cls-3{fill:#7d97f4;}.cls-4{fill:#bdd0fb;}.cls-5{fill:url(#linear-gradient-8);}.cls-6{fill:url(#linear-gradient-9);}.cls-7{fill:url(#linear-gradient-3);}.cls-8{fill:url(#linear-gradient-4);}.cls-9{fill:url(#linear-gradient-2);}.cls-10{fill:url(#linear-gradient-6);}.cls-11{fill:url(#linear-gradient-7);}.cls-12{fill:url(#linear-gradient-5);}.cls-13{fill:url(#linear-gradient-14);}.cls-14{fill:url(#linear-gradient-18);}.cls-15{fill:url(#linear-gradient-22);}.cls-16{fill:url(#linear-gradient-20);}.cls-17{fill:url(#linear-gradient-21);}.cls-18{fill:url(#linear-gradient-23);}.cls-19{fill:url(#linear-gradient-15);}.cls-20{fill:url(#linear-gradient-19);}.cls-21{fill:url(#linear-gradient-16);}.cls-22{fill:url(#linear-gradient-17);}.cls-23{fill:url(#linear-gradient-13);}.cls-24{fill:url(#linear-gradient-12);}.cls-25{fill:url(#linear-gradient-10);}.cls-26{fill:url(#linear-gradient-11);}.cls-27{fill:url(#linear-gradient-27);}.cls-28{fill:url(#linear-gradient-24);}.cls-29{fill:url(#linear-gradient-26);}.cls-30{fill:url(#linear-gradient-35);}.cls-31{fill:url(#linear-gradient-34);}.cls-32{fill:url(#linear-gradient-36);}.cls-33{fill:url(#linear-gradient-25);}.cls-34{fill:url(#linear-gradient-28);}.cls-35{fill:url(#linear-gradient-29);}.cls-36{fill:url(#linear-gradient-33);}.cls-37{fill:url(#linear-gradient-30);}.cls-38{fill:url(#linear-gradient-32);}.cls-39{fill:url(#linear-gradient-31);}.cls-40{fill:#fff;opacity:.62;}.cls-41{fill:#fcfcfc;opacity:.42;}</style><linearGradient id="linear-gradient" x1="3118.29" y1="3590.66" x2="651.38" y2="526.91" gradientUnits="userSpaceOnUse"><stop offset="0" stop-color="#dae3fe"/><stop offset="1" stop-color="#e9effd"/></linearGradient><linearGradient id="linear-gradient-2" x1="9.41" y1="2267.3" x2="2644.51" y2="2267.3" gradientUnits="userSpaceOnUse"><stop offset="0" stop-color="#4f52ff"/><stop offset="1" stop-color="#4042e2"/></linearGradient><linearGradient id="linear-gradient-3" x1="6206.92" y1="12458.38" x2="6250.22" y2="12643.82" gradientTransform="translate(-1110.02 2570.83) rotate(36.23) scale(1.01 1.08) skewX(11.82)" gradientUnits="userSpaceOnUse"><stop offset="0" stop-color="#09005d"/><stop offset="1" stop-color="#1a0f91"/></linearGradient><linearGradient id="linear-gradient-4" x1="2546.91" y1="-2992.18" x2="2632.05" y2="-2992.18" gradientTransform="translate(-1110.02 2570.83) rotate(36.23) scale(1.01 1.08) skewX(11.82)" xlink:href="#linear-gradient-2"/><linearGradient id="linear-gradient-5" x1="2964.31" y1="6478.53" x2="3007.62" y2="6663.96" gradientTransform="translate(1220.64 -11.94) rotate(26)" xlink:href="#linear-gradient-3"/><linearGradient id="linear-gradient-6" x1="1510.87" y1="463.4" x2="1588.39" y2="463.4" gradientTransform="translate(1220.64 -11.94) rotate(26)" xlink:href="#linear-gradient-2"/><linearGradient id="linear-gradient-7" x1="4307.61" y1="649.31" x2="4773.09" y2="649.31" gradientTransform="translate(-2406.17 499.26) rotate(-1.44)" gradientUnits="userSpaceOnUse"><stop offset="0" stop-color="#febbba"/><stop offset="1" stop-color="#ff928e"/></linearGradient><linearGradient id="linear-gradient-8" x1="3030.61" y1="-3831.33" x2="3503.05" y2="-3831.33" gradientTransform="translate(-2110.81 3771.96) rotate(17.36)" xlink:href="#linear-gradient-7"/><linearGradient id="linear-gradient-9" x1="5827.5" y1="4229.76" x2="6794.44" y2="4229.76" gradientTransform="translate(-5299.64 2301.25) rotate(-44.43)" xlink:href="#linear-gradient-3"/><linearGradient id="linear-gradient-10" x1="2029.61" y1="-115.73" x2="2019.62" y2="538.82" gradientTransform="matrix(1, 0, 0, 1, 0, 0)" xlink:href="#linear-gradient-3"/><linearGradient id="linear-gradient-11" x1="2373.76" y1="-76.61" x2="2283.82" y2="198.2" gradientUnits="userSpaceOnUse"><stop offset="0" stop-color="#ff928e"/><stop offset="1" stop-color="#fe7062"/></linearGradient><linearGradient id="linear-gradient-12" x1="7316.96" y1="5651.39" x2="6903.6" y2="5851.63" gradientTransform="translate(-5266.16 4981.24) rotate(-62.59) scale(1.01 .8)" xlink:href="#linear-gradient-7"/><linearGradient id="linear-gradient-13" x1="2287.76" y1="-104.76" x2="2197.82" y2="170.05" xlink:href="#linear-gradient-11"/><linearGradient id="linear-gradient-14" x1="3032.57" y1="1142.64" x2="3054.05" y2="1081.36" gradientTransform="translate(-1166.82 116.73) rotate(-8.75)" xlink:href="#linear-gradient-7"/><linearGradient id="linear-gradient-15" x1="-5215.42" y1="322.57" x2="-5111.75" y2="322.57" gradientTransform="translate(-2985.97 -544.07) rotate(-170.12) scale(1 -1)" xlink:href="#linear-gradient-3"/><linearGradient id="linear-gradient-16" x1="-530.09" y1="488.88" x2="-456.09" y2="488.88" gradientTransform="translate(2684.46 415.16) rotate(21.36)" xlink:href="#linear-gradient-7"/><linearGradient id="linear-gradient-17" x1="2218.65" y1="-127.38" x2="2128.71" y2="147.43" xlink:href="#linear-gradient-11"/><linearGradient id="linear-gradient-18" x1="7237.24" y1="5457.28" x2="6823.88" y2="5657.52" gradientTransform="translate(-5266.16 4981.24) rotate(-62.59) scale(1.01 .8)" xlink:href="#linear-gradient-7"/><linearGradient id="linear-gradient-19" x1="7406.38" y1="6042.77" x2="7082.69" y2="6199.57" gradientTransform="translate(-6581.97 4291.75) rotate(-62.59)" xlink:href="#linear-gradient-7"/><linearGradient id="linear-gradient-20" x1="7325.59" y1="5886.99" x2="7001.9" y2="6043.79" gradientTransform="translate(-6581.97 4291.75) rotate(-62.59)" xlink:href="#linear-gradient-7"/><linearGradient id="linear-gradient-21" x1="1377.39" y1="2478" x2="1335.01" y2="2871.96" gradientTransform="matrix(1, 0, 0, 1, 0, 0)" xlink:href="#linear-gradient-3"/><linearGradient id="linear-gradient-22" x1="690.63" y1="483.19" x2="580.64" y2="1505.68" gradientTransform="matrix(1, 0, 0, 1, 0, 0)" xlink:href="#linear-gradient-3"/><linearGradient id="linear-gradient-23" x1="82.44" y1="2399.11" x2="763.41" y2="2141.02" gradientTransform="matrix(1, 0, 0, 1, 0, 0)" xlink:href="#linear-gradient-7"/><linearGradient id="linear-gradient-24" x1="615.59" y1="2097" x2="916.54" y2="1982.94" gradientTransform="matrix(1, 0, 0, 1, 0, 0)" xlink:href="#linear-gradient-3"/><linearGradient id="linear-gradient-25" x1="1469.4" y1="1393.64" x2="581.86" y2="1458.19" gradientTransform="translate(152.39 12.36) rotate(-4.23)" xlink:href="#linear-gradient-7"/><linearGradient id="linear-gradient-26" x1="549.96" y1="1814.68" x2="1039.62" y2="975.25" gradientTransform="matrix(1, 0, 0, 1, 0, 0)" xlink:href="#linear-gradient-7"/><linearGradient id="linear-gradient-27" x1="795.73" y1="1756.11" x2="987.54" y2="2145.65" gradientTransform="matrix(1, 0, 0, 1, 0, 0)" xlink:href="#linear-gradient-3"/><linearGradient id="linear-gradient-28" x1="1067.08" y1="2111.21" x2="2035.19" y2="3338.21" gradientTransform="matrix(1, 0, 0, 1, 0, 0)" xlink:href="#linear-gradient-7"/><linearGradient id="linear-gradient-29" x1="800.63" y1="1809.1" x2="1421.77" y2="2596.35" gradientTransform="matrix(1, 0, 0, 1, 0, 0)" xlink:href="#linear-gradient-3"/><linearGradient id="linear-gradient-30" x1="1017.31" y1="1366.68" x2="-1402.68" y2="2955.56" gradientTransform="matrix(1, 0, 0, 1, 0, 0)" xlink:href="#linear-gradient-3"/><linearGradient id="linear-gradient-31" x1="-1644.01" y1="1438.62" x2="-1678.71" y2="1215.95" gradientTransform="translate(-874.98 87.8) rotate(175.77) scale(1 -1)" xlink:href="#linear-gradient-7"/><linearGradient id="linear-gradient-32" x1="-3310.05" y1="368.87" x2="-3076.2" y2="527.72" gradientTransform="translate(-2316.06 717.86) rotate(179.02) scale(1 -1)" xlink:href="#linear-gradient-7"/><linearGradient id="linear-gradient-33" x1="4241.88" y1="206.83" x2="3663.98" y2="899.23" gradientTransform="translate(-3260.54 733.71) rotate(-.98)" xlink:href="#linear-gradient-3"/><linearGradient id="linear-gradient-34" x1="3142.96" y1="-2153.54" x2="3101.98" y2="-1772.55" gradientTransform="translate(-1443.63 -1039.48) rotate(97.32) scale(1 .98)" xlink:href="#linear-gradient-3"/><linearGradient id="linear-gradient-35" x1="2104.9" y1="2548.39" x2="2531.3" y2="1888.81" xlink:href="#linear-gradient-2"/><linearGradient id="linear-gradient-36" x1="2542.56" y1="1612.45" x2="3092.18" y2="413.27" xlink:href="#linear-gradient-2"/></defs><g id="Illustration"><g><path class="cls-1" d="M2439.63,2382.43c-56.66,59.65-110.28,98.12-152.64,128.52-497.93,357.27-1087.12,253.13-1212.34,227.7-184.91-37.56-542.34-110.15-800.75-414.04C-117.06,1864.85-56.18,1140.51,247.07,662.37,302.54,574.91,595.55,89.48,1191.08,11.63c360.41-47.11,780.54,47.91,1084.78,302.8,638.63,535.05,593.17,1615.94,163.77,2067.99Z"/><g><g><path class="cls-2" d="M69.28,1739.38c-35.33-95.93-88.94-371.01-30.59-631.74,0,0,2.73-151.06,163.13-318.56,1.78-1.86,7-6.78,13.14-6.55,8.04,.29,15.51,7,14.96,17.29-4.14,76.94-2.22,245.9,51.19,545.86,30.96,173.89,7.92,322.61-31.21,438.83-60.21-15.04-120.41-30.09-180.62-45.13Z"/><path class="cls-41" d="M152.69,1741.23c.11,.03,.22,.05,.33,.07,1.63,.24,3.11-.8,3.31-2.33,18.63-141.83,25.89-278.76,22.19-418.63-.47-9.99-1.03-19.75-1.57-29.19-.54-9.42-1.1-19.17-1.57-29.07-2.62-36.9-5.94-79.63-12.14-120.64-.23-1.54-1.73-2.65-3.36-2.48-1.63,.17-2.75,1.55-2.52,3.09,6.17,40.82,9.47,83.42,12.09,120.15,.46,9.87,1.03,19.63,1.57,29.07,.54,9.42,1.1,19.17,1.57,29.08,3.69,139.54-3.56,276.2-22.15,417.76-.19,1.42,.8,2.76,2.26,3.13Z"/></g><g><path class="cls-4" d="M296.92,1796.51c-177.03-517.62,103.74-990.38,227.55-1163.9,23.57-33.03,63.5-31.04,69.74,3.27,65.77,362.12,.45,896.87-52.52,1223.07l-244.77-62.45Z"/><path class="cls-41" d="M442.83,1815.58c.32,.08,.67,.12,1.02,.11,1.82-.07,3.19-1.53,3.05-3.24-13.09-163.67-14.78-320.91-5.05-467.33,10.75-161.7,35.82-316.06,74.5-458.79,.45-1.65-.62-3.38-2.4-3.86-.02,0-.03,0-.05-.01-1.76-.45-3.53,.5-3.97,2.14-38.78,143.09-63.91,297.83-74.69,459.92-9.76,146.7-8.06,304.22,5.05,468.18,.11,1.39,1.17,2.53,2.53,2.87Z"/></g></g><path class="cls-2" d="M74.05,1683.69c-21.52-.08-38.06,18.38-35,38.99,30.85,208,112.81,404.15,256.62,566.36,255.62,288.31,609.19,357.58,792.11,393.22,123.87,24.13,706.7,123.13,1199.26-215.83,41.9-28.84,94.94-66.03,150.99-122.62,149.73-151.18,258.41-367.31,301.26-617.92,2.92-17.06-10.77-32.55-28.63-32.61l-2636.62-9.58Z"/><path class="cls-9" d="M2556.99,1774.86c-4.94-20.45-1109.38,40.04-1114.98,168.64-3.81,87.37,405.94,259.99,404.77,338.36-2.48,165.68-1817.09,17.81-1837.19,211.22-10.28,98.95,438.91,217.58,750.62,254.24,158.69,18.66,1228.96,61.92,1777.1-157.4,142.24-56.91,162.14-253.94-58.6-371.63-147.83-78.82-684.08-200.56-686.41-287.08-2.42-89.6,768.48-140.72,764.71-156.35Z"/><path class="cls-3" d="M2726.63,1732.31c17.8,.14,16.11-23.24,2.44-34.91l-173.49-155.95c-22.44-19.16-51.66-24.23-78-13.52l-108.49,44.1c-27.88,11.33-58.86,4.95-81.62-16.8l-193.73-185.18c-25.87-24.73-62.01-29.32-91.93-11.69l-457.42,269.56c-28.43,16.76-62.64,13.5-88.31-8.42l-136.6-116.63c-22.44-19.16-51.66-24.23-78-13.53l-124.35,50.55c-27.88,11.33-58.86,4.95-81.62-16.8l-215.88-206.35c-25.87-24.73-62.01-29.32-91.93-11.69L72.62,1691.07c-1.69,1-2.57,3.19-2.13,5.32,.44,2.13,2.08,3.64,3.97,3.65l1329.18,10.81h0c-5.04,2.97-2.97,10.69,2.88,10.74l1320.1,10.73Z"/><path class="cls-4" d="M954.82,458.01c22.77-27.82,56.76-39.27,90.07-30.94,36.3,9.08,56.81,43.77,90.59,57.64,58.94,24.2,140.44-23.62,185.2,38.77,54.75,76.31,97.05,19.08,97.05,70.86s-378.24,13.63-564.87,16.35c-26.96,.39-144.02-1.57-93.63-57.54,15.65-17.38,37.98-20.29,58.79-24.36,27.14-5.3,91.67-8.21,111.32-29.33,10.58-11.36,14.65-27.69,24.21-39.86,.42-.54,.85-1.07,1.28-1.6Z"/><path class="cls-4" d="M1509.07,318.86c14.24-17.39,35.48-24.55,56.3-19.34,22.69,5.67,35.51,27.36,56.63,36.03,36.84,15.13,87.79-14.76,115.77,24.24,34.22,47.7,60.67,11.93,60.67,44.3s-236.45,8.52-353.11,10.22c-16.86,.25-90.03-.98-58.53-35.97,9.78-10.86,23.74-12.68,36.75-15.23,16.97-3.32,57.3-5.13,69.59-18.33,6.61-7.1,9.16-17.31,15.13-24.92,.27-.34,.53-.67,.8-1Z"/><g><g><g><path class="cls-7" d="M2358.68,1157.8c2.01,3.83,6.22,5.91,10.34,5.17,16.22-2.92,59.06-12.92,84.36-40.12,1.67-1.8,1.52-4.51,0-6.2-6.54,6.88-17.73,15.3-36.75,24.93-29.22,14.79-47.27,17.06-57.96,16.23Z"/><path class="cls-8" d="M2357.98,1121.43s-8.67,17.82,.62,36.24c.02,.05,.06,.08,.08,.13,10.69,.84,28.73-1.44,57.96-16.23,19.02-9.62,30.2-18.05,36.75-24.93-.48-.53-1.09-.97-1.83-1.24-16.24-5.89-61.35-18.72-93.58,6.03Z"/></g><g><path class="cls-12" d="M2373.6,1111.2c2.21,3.42,6.44,5.01,10.4,3.97,15.56-4.11,56.51-17.12,79.27-44.77,1.5-1.83,1.17-4.35-.42-5.81-5.89,7.01-16.2,15.85-34.03,26.49-27.4,16.35-44.78,20-55.22,20.12Z"/><path class="cls-10" d="M2370.48,1077.15s-7.23,17.45,3.03,33.93c.03,.04,.06,.07,.09,.11,10.44-.12,27.82-3.78,55.22-20.12,17.83-10.63,28.14-19.48,34.03-26.49-.5-.46-1.12-.82-1.86-1.01-16.17-4.15-60.86-12.37-90.51,13.58Z"/></g><path class="cls-11" d="M1923.33,982.18l-7.88,32.83s4.3,72.41,109.97,59.8c105.67-12.61,154.9-19.3,154.9-19.3,0,0,54.62,47.24,193.68,40,0,0,13.04-8.52,7.12-23.1l-181.47-66.47c-11.15-9.74-24.37-7.75-45.33-11.73-49.92-9.47-150.1-21.32-163.26-23.84l-67.74,11.81Z"/><path class="cls-5" d="M1946.73,988.86l-20.68,27.1s-23.69,65.44,88.12,81.89c111.81,16.44,181.78,11.75,181.78,11.75,0,0,51.05,60.04,182.22,35.6,0,0,9.95-9.12,4.51-23.88-55.77-17.79-111.55-35.57-167.32-53.36-5.93-4.01-10.99-5.22-14.57-5.56-4.53-.43-6.6,.53-12.48,.13,0,0-5.91,.49-12.51-2.53-46.85-21.47-143.62-58.2-155.97-63.88l-73.11-7.23Z"/><path class="cls-6" d="M1898.56,1039.35s21.94,29.41,66.66,34.61c36.94,4.29,125.41,10.34,150.18,7.47,4.75-.55,8.12-4.46,7.95-9.32l-1.21-75.76c.13-6.03-4.53-11.51-10.52-12.36l-130.14-16.5-82.93,71.86Z"/><path class="cls-25" d="M1902.24,1085.23c15.3,15.65,36.41,19.39,75.4,26.32,27.4,4.86,111.52,18.98,127.57,18.96,2.91-.31,6.94-1.02,11.49-2.73,0,0,7.53-2.84,13.67-8.06,13.62-11.56,5.1-37.48,10.22-60.04,1.3-5.71-2.12-11.3-8-13.18-50.63-16.14-149.51-13.36-152.09-68.37-1.14-24.21-54.52,6.29-79.92-.76l-12.29,11.76c-2.47,9.38-16.33,65.13,13.96,96.1Z"/><g><path class="cls-26" d="M2062.81,745.74c15.27,17.82,17.79,48.42,32.99,66.33,40.33-33.32,34.76-61.42,63.58-105.83-19-4.15-32.62-13.3-44.46-29.23-25.9,40.58-27.1,40.24-52.1,68.73Z"/><path class="cls-24" d="M2181.88,523.02c-10.81,55.16-37.34,105.44-66.97,153.99,11.85,15.94,25.47,25.08,44.46,29.23,23.1-41.23,52.15-143.94,43.93-186.43-7.04,.92-14.37,1.1-21.42,3.21Z"/></g><path class="cls-23" d="M2098.96,780.14l-.39-28.16c-21.74-5.58-40.22-9.16-53.93-11.48-76.76-13-104.22-3.63-116.63,1.75-6.64,2.88-11.82,5.85-15.15,7.9-4.67,2.45-11.28,6.73-16.56,14-11.43,15.76-8.29,42.5-7.14,50.23,2.23,14.98-.65,73.12-6.42,189.39-.51,10.38-.69,31.85,4.5,25.08,5.96-7.76,62.32-66.28,111.62-50.71l88.44-139.79c7.96-18.05,11.95-37.97,11.66-58.21Z"/><path class="cls-13" d="M2000.29,688.13l-17.07,58.5c-1.04,3.57,.04,7.52,2.75,9.95,7.33,6.57,23.78,16.54,47.78,3.88,2.65-1.4,4.24-4.39,4.18-7.63l-1-50.59-36.64-14.12Z"/><g><path class="cls-19" d="M2022.19,700.82s-10.13,4.5-14.23,.26c-4.98-5.14-7.27-13.24-8.71-20.04-1.58-7.46-2.06-15.1-2.1-22.71-.02-4.34,.09-8.67,.2-13.01,.18-6.74-.05-14.14,2.68-20.46,1.27-2.95,3.4-6.2,6.42-7.54,2.2-.97,5.4,.22,7.22,1.43,1.13,.75,3.13,3.52,4.53,3.6,.94,.06,3-1.62,3.81-2.22,4.99-3.67,9.12-6.97,15.38-8.4,4.94-1.13,9.98-.84,14.91,.3,23.27,5.37,72.73,33.78,34.97,42.61-37.76,8.83-65.08,46.18-65.08,46.18Z"/><path class="cls-21" d="M2082.64,683.37c-.76-14.62-.6-21.98-.27-25.67,.09-.98-.23-1.95-.89-2.68-.65-.73-1.58-1.16-2.56-1.19-10.9-.31-39.41-.29-41.98,8.12-3.18,10.42-3.44,17.27-3.44,17.27,0,0-7.92-19.47-15.32-12.6-7.4,6.86-7.28,29.79-1.09,32.89,6.19,3.09,2.65,32.04,26.61,39.54,23.96,7.5,40.4-27.54,38.93-55.66Z"/></g><g><path class="cls-22" d="M1887.32,765.25c-5.2,24.81,3.13,44.86,15.65,49.07,2.21,.74,8.18,2.21,17.33-2.25,6.05-5.62,13.73-13.28,21.93-22.99,2.44-2.89,10.97-13.04,18-23.98,6.84-10.64,17.34-29.91,23.65-58.86-5.66-1.14-14.06-3.51-22.97-8.96-8.08-4.94-15.05-11.6-21.49-20.27-8.64,11.38-17.6,24.34-26.4,38.92-10.56,17.49-18.97,34.16-25.7,49.32Z"/><path class="cls-14" d="M2006.4,523.02c-10.81,55.16-37.34,105.44-66.97,153.99,11.85,15.94,25.47,25.08,44.46,29.23,23.1-41.23,52.15-143.94,43.93-186.43-7.04,.92-14.37,1.1-21.42,3.21Z"/></g></g><g><rect class="cls-2" x="1711.69" y="502.93" width="33.38" height="1220.44"/><rect class="cls-2" x="1133.44" y="1139.88" width="33.38" height="583.49"/><rect class="cls-2" x="2655.43" y="502.93" width="40.8" height="1220.44"/><rect class="cls-2" x="1633.8" y="493.61" width="1140.33" height="23.96" rx="11.16" ry="11.16"/><rect class="cls-2" x="1152.56" y="1109.22" width="592.52" height="37.09"/><path class="cls-2" d="M1778.04,1697.4h-105.57c-7.79,0-16.42,8.35-16.42,16.14v13.53h137.24v-13.53c0-7.79-7.47-16.14-15.26-16.14Z"/><path class="cls-2" d="M1203.51,1697.4h-105.57c-7.79,0-12.73,8.35-12.73,16.14v13.53h133.53v-13.53c0-7.79-7.45-16.14-15.24-16.14Z"/><path class="cls-2" d="M2729.07,1697.4h-105.57c-7.79,0-8.87,8.35-8.87,16.14v13.53h129.83v-13.53c0-7.79-7.59-16.14-15.38-16.14Z"/><rect class="cls-3" x="1698.71" y="469.35" width="59.35" height="96.44" rx="13.31" ry="13.31"/><rect class="cls-3" x="1122.31" y="1068.42" width="59.35" height="96.44" rx="13.31" ry="13.31"/><rect class="cls-3" x="1696.86" y="1068.42" width="59.35" height="96.44" rx="13.31" ry="13.31"/><rect class="cls-3" x="2648.01" y="469.35" width="59.35" height="96.44" rx="13.31" ry="13.31"/></g><g><path class="cls-20" d="M2196.7,536.4s-25.06,.11-32.49-22.59c0,0-3.49-7.89,8.02-8.59,0,0-7.59-24.21,1.07-25.27,8.66-1.05,30.5-4.43,42.7,16.25,12.33,20.91-7.78,39.77-19.3,40.2Z"/><path class="cls-16" d="M2021.21,536.4s-25.06,.11-32.49-22.59c0,0-3.49-7.89,8.02-8.59,0,0-7.59-24.21,1.07-25.27,8.66-1.05,30.5-4.43,42.7,16.25,12.33,20.91-7.78,39.77-19.3,40.2Z"/></g></g><g><path class="cls-17" d="M1255.64,2607.14l-5.88,19.28c-1.58,5.18-.27,10.83,3.47,14.75,34.41,35.99,70.25,68.01,110.88,86.31,11.56,5.21,24.28,7.29,36.94,6.66,32.21-1.6,65.21-7.25,62.23-17.18l-.86-22.4-206.78-87.41Z"/><g><path class="cls-15" d="M784.05,997.61s-115.1-88.86-189.45,43.38c-74.34,132.24-105.85,171.85-127.85,136.44-1.13,8.13-1.69,21.44,4.75,33.96,12.26,23.81,41.04,27.59,56.14,29.58,43.71,5.74,83.98-8.54,92.83-19.97,126.97-163.88,162.86-169.58,163.57-223.38Z"/><path class="cls-18" d="M639.2,2168.39c-3.79,22.55,.06,44.01-3.52,66.05-1.25,7.65-5.03,16.53-12.72,17.47-4.72,.58-9.13-2.17-13.19-4.65-52.52-32.12-117.68-36.39-178.89-29.76-61.2,6.63-121.01,23.17-182.25,29.42-17.75,1.81-36.52,2.81-54.05-1.27-21.33-4.96-26.44-19.73-41.68-27.61-16.13-8.34-8.22-14.44-25.96-10.57-9.31,2.03-35.07,20.41-37.28,29.68-4.05,17.05-3.44,16.45-15.18,33.16-8.25,11.75-24.53,15.69-34.86,25.16-25.04,22.96-24.25,57-19.91,88.31,.99,7.16,7.9,16.57,12.97,11.42,1.91-1.94,1.87-4.99,1.99-7.71,1.18-28.38,29.4-46.82,54.38-60.33,30.43-16.46,62.09-33.3,96.62-35.48,28.9-1.83,57.29,6.79,85.37,13.87,111.86,28.2,228.91,29.99,342.1,53.45,43.33,8.98,66.69-11.89,87.83-48.16,22.27-38.2,43.59-76.95,64.01-116.17-39.3-18.76-80.69-31.72-123.84-37.48-.65,3.73-1.32,7.46-1.95,11.2Z"/><path class="cls-28" d="M837.27,1873.86c-29.61-11.74-64.31-17.3-95.12-6.91-34.31,11.57-42.21,47.45-52.3,79.1-16.24,50.97-30.07,102.71-41.42,154.98-5.68,26.14-10.73,52.41-15.17,78.79-1.47,8.75-1.79,17.35-1.84,25.87,40.11,1.65,80.64,7.81,115.34,23.71,22.36-41.95,43.67-84.46,63.86-127.5,17.81-37.97,34.66-76.36,50.83-115.06,21.42-51.27,42.14-86.7-24.18-112.99Z"/><path class="cls-33" d="M1305.85,1392.35c65.12-16.92,125.41-68.22,163.19-124.08,4.34-6.42,9.27-13.53,16.77-14.96,7.7-1.47,15.05,3.65,21.22,8.67,11.97,9.74,44.49,29.49,34.39,49.91-6.58,13.3-40.76,27.08-53.06,35.72,6.86-4.82,6.19-23.14,3.94-29.64-3.48,5.72-6.91,12.63-11.82,17.59-5.04,5.09-11.47,8.43-17.79,11.69-14.22,7.33-23.55,15.99-36.24,25.05-28.52,27.93-56.14,57.91-91.36,77.14-29.65,16.19-63.02,23.79-96.17,29.65-14.06,2.49-28.36,4.71-42.59,3.3-13.08-1.29-25.7-5.61-38.19-9.89-37.63-12.92-75.58-27.38-108.63-50.47-15.76-11.01-30.26-23.96-42.45-39.04-13.3-16.44-28.11-39.27-29.6-61.13-1.31-19.14,5.41-44.86,27.81-31.04,49.2,30.36,91.51,70.37,145.73,90.46,49.52,18.35,103.65,24.39,154.86,11.09Z"/><path class="cls-29" d="M743.21,1410.67c-9.33,.74-18.6,1.53-27.77,2.27-36.71,2.95-63.48,25.17-89.01,50.43-13.1,12.96-25.27,26.87-36.29,41.63-37.19,49.81-58.93,113.05-50.59,174.65,4.25,31.4,15.97,61.25,28.01,90.55,7.64,18.58,15.66,37.44,28.84,52.6,15.77,18.14,38,29.9,53.06,48.64,2.69,3.35,5.26,7.36,4.69,11.62-.58,4.42-4.31,7.66-7.78,10.46-13.42,10.83-26.84,21.66-40.26,32.49-1.82,1.47-3.81,3.01-6.16,3.15-3.65,.22-6.51-2.97-8.69-5.9-10.94-14.72-26.12-34.88-28.7-53.32,5.89-1.59,19.82,11.41,23.62,4.63-21.39-47-63.95-81.63-86.37-128.14-14.48-30.05-19.83-63.58-23.97-96.68-4.11-32.83-7.14-66.64,1.45-98.59,4.19-15.57,11.04-30.29,18.36-44.66,40-78.54,96.6-150.94,168.78-202.29,53.13-37.8,109.77-59.53,174.44-61.44,25.98-.77,52.33-1.49,77.58,4.68,24.39,5.97,42.29,16.17,64.34,28.03,28.84,15.52,63.23,39.87,78.62,69.21-36.33,6.24-34.8,23.75-57.4,40.03-10.27,7.4-23.12,10.06-35.57,12.32-40.04,7.25-84.74,16.75-125.18,12.49-32-3.37-65.36-1.44-98.05,1.14Z"/><path class="cls-27" d="M772.23,1670.35c-12.77,32.59-84.09,173.98-87.2,197.25-3.11,23.28,8.34,56.78,24.5,73.82,12.31,12.97,120.73,44.33,163.51,30.46,32.25-10.46,84.27-173.25,77.54-236.02-1.24-11.51-1.39-23.08-.79-34.62-62.24-3.37-114.85-17.59-177.56-30.89Z"/><path class="cls-34" d="M1382.43,2647.82c-9.67-10.76-19.34-21.53-29.01-32.29-30.88-31.85-29.53-65.46-33.59-106.46-4.55-45.9-9.59-91.75-15.12-137.55-6.83-56.54-14.4-112.99-22.72-169.33-5.09-34.49-2.41-71.1-15.55-104.06-22.88-57.34-111.4-68.19-142.89-109.06-27.32,46.32-46.39,76.18-73.33,121.6,40.08,10.32,80.63,29.5,121.78,38.41-7.4,41.66-3.41,71.91,10.58,112.56,21.2,61.58,41.79,123.42,59.03,186.24,8.25,30.09,12.36,62.77,22.44,92.16,7.1,20.69,22.87,38.7,2.54,58.92-5.35,5.31-12.61,9.36-10.21,19.98,.68,2.99,2.12,5.81,4.11,8.15,6.25,7.35,15.48,10.23,23.74,14.59,20.39,10.74,34.48,30.11,49.96,47.19s35.06,33.24,58.1,33.74c19.78,.43,59.09-4.79,63.49-28.05-32.54-13.53-47.91-16.28-73.33-46.73Z"/><path class="cls-35" d="M1160.48,2014.52c-62.82-43.29-125.64-86.58-188.46-129.87-60.69-41.83-124.91-84.68-202.34-77.31-33.47,3.18-67.64,20.68-81.3,51.39-13.34,30-4.26,66.17,14.66,92.99,29.23,41.44,79.4,73.33,125.16,93.55,93.83,41.47,189.14,68.08,287.62,90.77,18.37-38.62,41.38-75.32,68.79-106.99-8.52-4.71-16.75-9.45-24.13-14.54Z"/><path class="cls-37" d="M721.18,1270.88c28.02-17.83,31.38,43.6,22.04,139.8l29.86,267.24c36.88,30.57,136.01,46.43,176.71,23.32,19.38-115.51,82.81-268.27,71-303.11-20.3-37.94-26.25-77.15-24.86-113.92-11.08-14.76-45.78-25.19-79.48-36.74l-77.58-4.68c-36-.48-69.32-.02-117.7,28.1Z"/><g><path class="cls-39" d="M945.55,1152.54c-.78,3.51-33.24,114.84-35.13,116.76-1.89,1.93-56.32,8.91-83.34-6.77l54.57-129.51,63.89,19.52Z"/><path class="cls-38" d="M921.8,974.14s48.5,19.51,82.43,88.53c33.93,69.02,10.03,101.56-20.61,106.5-30.64,4.94-76.57,5.05-125.92-39.07-49.35-44.12,1.1-178.99,64.1-155.96Z"/><path class="cls-36" d="M889.72,1092.39s-38.07-101.18,52.17-103.92l21.49,14.48s11.73-42.74-43.09-68.75c-54.81-26.01-115.08-14.91-136.96,58.71-21.88,73.62-7.53,120.67,31.55,155.05,39.08,34.38,59.23-3.69,59.23-3.69,0,0-26.48-34.33-18.25-52.01,8.23-17.68,26.74,9.01,26.74,9.01l7.12-8.88Z"/></g></g><path class="cls-4" d="M1276.4,2580.69l-20.76,26.45c-3.85,4.9-4.47,11.59-1.54,17.09,13.52,25.39,51.82,63.67,107.73,91.9,15.15,7.65,32.3,10.55,49.15,8.54,46.67-5.56,55.43-16.62,51.43-30.12l-132.35-116.57c-18.51,10.06-36.46,11.85-53.67,2.71Z"/><path class="cls-31" d="M151.93,2212.19l-18.07-8.25c-4.84-2.21-10.54-1.63-14.8,1.57-40,29.98-68.97,57.04-92.15,95.78-10.31,17.23-18.76,47.89-18.57,67.97,.19,20.53,2.96,36.3,9.95,35.12l10.35,.92c7.09,.63,13.9-2.92,17.45-9.09l105.84-184.02Z"/><path class="cls-4" d="M175.52,2236.16l-23.59-23.96c-4.37-4.44-9.66-2.57-15.49-.37-26.91,10.18-65.36,47.94-100.48,99.8-9.51,14.05-18.18,25.81-18.33,42.77-.43,47,7.36,54,21.26,51.75l132.19-112.67c-7.62-19.64-6.82-41.43,4.44-57.33Z"/></g><g><g><path class="cls-30" d="M2529.7,1869.35c.49,.37,1.2,.91,2.06,1.55,0,0,7.07,5.24,14.2,9.49,6.54,3.9,85.68,35.3,129.54-6.16,12.11-11.45,18.6-28.28,31.57-61.95,3.05-7.91,5.4-16.12,6-26.88,2.59-46.29-32.79-55.45-55.85-41.25-23.06,14.2-7.44,61.89-11.57,79.25-4.13,17.35-24.13,8.98-18.96-2.74,5.17-11.73,12.88-17.95,4.28-40.36-8.6-22.41-1.21-26.36,22.12-74.51,23.33-48.15-8.53-98.11-54.19-96.7-45.65,1.4-41.69,40.32-37.67,68.11,4.01,27.79-1.1,39.16-27.45,62.13-26.34,22.96-19.75,44.3-18.07,74.83,.63,11.45-1.08,18.67-3.84,21.43,5.09,11.65,11.1,22.94,17.85,33.77Z"/><path class="cls-3" d="M2614.85,1696.45l-.37,1.15-.42,1.13-.85,2.26c-.64,1.47-1.22,2.98-1.91,4.42-.69,1.45-1.37,2.91-2.13,4.31l-1.12,2.13-1.12,2.05-4.49,8.16c-5.97,10.88-11.83,21.79-17.11,32.92-5.22,11.13-9.82,22.57-12.59,34.34-.7,2.94-1.27,5.89-1.66,8.86-.4,2.97-.65,5.94-.65,8.91-.01,2.96,.16,5.91,.61,8.81,.48,3.28,.66,6.59,.63,9.81-.15,6.45-.9,12.75-1.85,18.97-.97,6.22-2.07,12.37-3.27,18.49-1.75,9.05-3.55,18.07-4.94,27.11-1.2-.26-2.39-.52-3.58-.79,.96-9.11,2.41-18.15,3.76-27.14,.92-6.16,1.9-12.28,2.65-18.41,.75-6.12,1.28-12.24,1.25-18.24-.06-3-.25-5.92-.73-8.8-.56-3.25-.81-6.53-.86-9.79-.06-3.27,.16-6.52,.54-9.73,.36-3.22,.92-6.39,1.61-9.53,2.77-12.55,7.56-24.36,12.81-35.8,5.3-11.43,11.29-22.47,17.58-33.27,1.58-2.7,3.16-5.39,4.77-8.06l1.21-2,1.14-1.96c.78-1.3,1.47-2.64,2.19-3.97,.73-1.32,1.34-2.7,2.02-4.05l.9-2.07c.31-.69,.6-1.38,.87-2.08,1.17-2.78,2.03-5.65,2.83-8.54,.78-2.9,1.31-5.85,1.57-8.83,.25-2.98,.3-5.99,0-8.97-.17-1.49-.39-2.98-.73-4.45-.3-1.48-.71-2.93-1.2-4.37-.99-2.85-2.31-5.67-4.12-8.11l.5-.49c1.19,1.11,2.17,2.36,3.09,3.66,.92,1.31,1.72,2.7,2.42,4.14,1.43,2.87,2.47,5.96,3.14,9.12,1.35,6.34,1.21,12.96,.06,19.32-.12,.8-.3,1.59-.47,2.38-.18,.79-.34,1.59-.56,2.36l-.63,2.34-.73,2.3Z"/></g><g><path class="cls-32" d="M2577.64,1880.6s44.04-55.34,36.88-107.65c-7.16-52.31-42.9-46.07-58.8-15.14-15.9,30.94-30.2,26.69-20.75-2.39,9.45-29.08,21.29-48.01,1.71-76.96-19.58-28.95-21.61-41.25-10.61-67.09,11-25.83,24.81-62.44-18.96-75.5-43.77-13.06-87.37,27.06-77.17,79.58,10.21,52.52,16.34,58.24,2.28,77.69-14.06,19.45-8.2,27.44-6.21,40.1,1.99,12.66-19.49,15.63-19.03-2.21,.46-17.83,27.78-59.93,9.13-79.57-18.65-19.64-55.2-19.85-64.56,25.56-9.36,45.41,20.63,65.81,19.14,82.23-1.49,16.42-17.6-8.48-31.63,8.26-14.03,16.74,4.86,29.89,18.76,38.96,13.9,9.07,34.86,25.33,14.92,37.14-19.94,11.81-38.83,.51-26.61,36.97,27.16,12.6,87.44,35.7,161.28,22.92,28.47-4.93,52.09-14,70.21-22.92Z"/><path class="cls-3" d="M2487.1,1573.75c-1.44,.76-2.7,1.72-3.93,2.75-1.22,1.03-2.35,2.17-3.4,3.38-2.12,2.41-3.91,5.12-5.37,8.01-2.93,5.78-4.49,12.22-5.01,18.66-.09,.81-.12,1.61-.16,2.42-.03,.81-.08,1.62-.06,2.42v2.42s.13,2.42,.13,2.42l.07,1.21,.12,1.2,.24,2.4c.24,1.59,.41,3.19,.72,4.77,.29,1.58,.58,3.16,.96,4.71l.54,2.34,.56,2.26,2.25,9.04c2.98,12.05,5.85,24.09,8.1,36.2,2.19,12.1,3.71,24.33,3.37,36.42-.08,3.02-.28,6.02-.67,8.99-.37,2.97-.89,5.91-1.65,8.77-.75,2.86-1.67,5.67-2.85,8.36-1.31,3.04-2.33,6.2-3.12,9.32-1.51,6.28-2.39,12.56-3.07,18.81-.66,6.26-1.17,12.49-1.58,18.71-.85,12.43-1.59,24.83-3.38,37.06-.23,1.53-.47,3.05-.75,4.57-.25,1.52-.58,3.03-.89,4.53-.29,1.52-.7,2.99-1.05,4.5-.2,.74-.42,1.48-.63,2.22-.21,.74-.41,1.48-.67,2.2l-.74,2.18c-.25,.73-.56,1.43-.84,2.14-.53,1.44-1.24,2.8-1.88,4.2-1.43,2.71-3.11,5.3-5.15,7.6l.5,.49c2.27-2.2,4.2-4.72,5.89-7.41,1.61-2.72,3.01-5.57,4.15-8.52,2.35-5.88,3.89-12.01,5.16-18.17,2.53-12.33,3.73-24.81,5.1-37.18,.69-6.19,1.31-12.36,2.16-18.47,.84-6.11,1.9-12.16,3.47-17.96,.83-2.88,1.76-5.66,2.96-8.32,1.38-3,2.46-6.1,3.34-9.25,.89-3.14,1.51-6.34,1.97-9.54,.48-3.2,.75-6.41,.89-9.62,.54-12.84-1.06-25.49-3.2-37.89-2.19-12.41-5.15-24.61-8.46-36.66-.84-3.01-1.68-6.02-2.54-9.02l-.66-2.25-.6-2.19c-.43-1.46-.75-2.93-1.09-4.4-.37-1.47-.6-2.95-.91-4.43l-.34-2.23c-.12-.74-.23-1.49-.3-2.23-.41-2.98-.52-5.98-.54-8.98-.01-3,.24-5.99,.75-8.94,.53-2.94,1.24-5.86,2.31-8.67,.55-1.39,1.14-2.78,1.84-4.12,.67-1.35,1.44-2.65,2.28-3.92,1.69-2.5,3.69-4.89,6.06-6.78l-.36-.6Z"/><path class="cls-40" d="M2580.85,1761.19c-1.31,9.79-3.18,19.5-5.46,29.08-1.15,4.79-2.41,9.54-3.81,14.26-.33,1.18-.73,2.35-1.08,3.52-.36,1.18-.75,2.34-1.14,3.5-.74,2.34-1.58,4.65-2.4,6.96-.88,2.29-1.74,4.59-2.7,6.84-.89,2.28-1.91,4.51-2.9,6.75-2.07,4.44-4.26,8.81-6.69,13.06-2.42,4.25-5.1,8.35-7.95,12.34-2.91,3.95-6.07,7.7-9.42,11.34l.47,.52c3.88-3.13,7.45-6.66,10.74-10.44,3.23-3.83,6.19-7.89,8.89-12.12,2.61-4.28,5.07-8.66,7.19-13.19,1.03-2.28,2.1-4.55,3.04-6.87,.97-2.31,1.82-4.66,2.7-7,.82-2.36,1.65-4.72,2.39-7.1,.39-1.19,.74-2.38,1.08-3.59,.34-1.2,.71-2.39,1.01-3.6,1.33-4.81,2.42-9.68,3.37-14.57,1.85-9.79,3.15-19.68,3.37-29.64l-.7-.04Z"/></g></g></g></g></svg>